<?xml version="1.0" standalone="no"?>
<svg xmlns="http://www.w3.org/2000/svg" width="512" height="666" viewBox="0 0 1000 1300"><defs><clipPath id="clip-path-dot-color"><rect x="151" y="288" width="17" height="17" transform="rotate(0,159.5,296.5)"/><rect x="151" y="322" width="17" height="17" transform="rotate(0,159.5,330.5)"/><rect x="151" y="339" width="17" height="17" transform="rotate(0,159.5,347.5)"/><rect x="151" y="356" width="17" height="17" transform="rotate(0,159.5,364.5)"/><rect x="151" y="373" width="17" height="17" transform="rotate(0,159.5,381.5)"/><rect x="151" y="458" width="17" height="17" transform="rotate(0,159.5,466.5)"/><rect x="151" y="492" width="17" height="17" transform="rotate(0,159.5,500.5)"/><rect x="151" y="509" width="17" height="17" transform="rotate(0,159.5,517.5)"/><rect x="151" y="543" width="17" height="17" transform="rotate(0,159.5,551.5)"/><rect x="151" y="560" width="17" height="17" transform="rotate(0,159.5,568.5)"/><rect x="151" y="594" width="17" height="17" transform="rotate(0,159.5,602.5)"/><rect x="151" y="645" width="17" height="17" transform="rotate(0,159.5,653.5)"/><rect x="151" y="662" width="17" height="17" transform="rotate(0,159.5,670.5)"/><rect x="151" y="679" width="17" height="17" transform="rotate(0,159.5,687.5)"/><rect x="168" y="322" width="17" height="17" transform="rotate(0,176.5,330.5)"/><rect x="168" y="339" width="17" height="17" transform="rotate(0,176.5,347.5)"/><rect x="168" y="407" width="17" height="17" transform="rotate(0,176.5,415.5)"/><rect x="168" y="424" width="17" height="17" transform="rotate(0,176.5,432.5)"/><rect x="168" y="458" width="17" height="17" transform="rotate(0,176.5,466.5)"/><rect x="168" y="492" width="17" height="17" transform="rotate(0,176.5,500.5)"/><rect x="168" y="509" width="17" height="17" transform="rotate(0,176.5,517.5)"/><rect x="168" y="611" width="17" height="17" transform="rotate(0,176.5,619.5)"/><rect x="168" y="645" width="17" height="17" transform="rotate(0,176.5,653.5)"/><rect x="185" y="288" width="17" height="17" transform="rotate(0,193.5,296.5)"/><rect x="185" y="373" width="17" height="17" transform="rotate(0,193.5,381.5)"/><rect x="185" y="424" width="17" height="17" transform="rotate(0,193.5,432.5)"/><rect x="185" y="475" width="17" height="17" transform="rotate(0,193.5,483.5)"/><rect x="185" y="543" width="17" height="17" transform="rotate(0,193.5,551.5)"/><rect x="185" y="628" width="17" height="17" transform="rotate(0,193.5,636.5)"/><rect x="185" y="645" width="17" height="17" transform="rotate(0,193.5,653.5)"/><rect x="185" y="696" width="17" height="17" transform="rotate(0,193.5,704.5)"/><rect x="202" y="288" width="17" height="17" transform="rotate(0,210.5,296.5)"/><rect x="202" y="322" width="17" height="17" transform="rotate(0,210.5,330.5)"/><rect x="202" y="339" width="17" height="17" transform="rotate(0,210.5,347.5)"/><rect x="202" y="356" width="17" height="17" transform="rotate(0,210.5,364.5)"/><rect x="202" y="373" width="17" height="17" transform="rotate(0,210.5,381.5)"/><rect x="202" y="390" width="17" height="17" transform="rotate(0,210.5,398.5)"/><rect x="202" y="424" width="17" height="17" transform="rotate(0,210.5,432.5)"/><rect x="202" y="441" width="17" height="17" transform="rotate(0,210.5,449.5)"/><rect x="202" y="458" width="17" height="17" transform="rotate(0,210.5,466.5)"/><rect x="202" y="475" width="17" height="17" transform="rotate(0,210.5,483.5)"/><rect x="202" y="611" width="17" height="17" transform="rotate(0,210.5,619.5)"/><rect x="202" y="628" width="17" height="17" transform="rotate(0,210.5,636.5)"/><rect x="202" y="662" width="17" height="17" transform="rotate(0,210.5,670.5)"/><rect x="202" y="696" width="17" height="17" transform="rotate(0,210.5,704.5)"/><rect x="219" y="305" width="17" height="17" transform="rotate(0,227.5,313.5)"/><rect x="219" y="373" width="17" height="17" transform="rotate(0,227.5,381.5)"/><rect x="219" y="390" width="17" height="17" transform="rotate(0,227.5,398.5)"/><rect x="219" y="407" width="17" height="17" transform="rotate(0,227.5,415.5)"/><rect x="219" y="441" width="17" height="17" transform="rotate(0,227.5,449.5)"/><rect x="219" y="458" width="17" height="17" transform="rotate(0,227.5,466.5)"/><rect x="219" y="560" width="17" height="17" transform="rotate(0,227.5,568.5)"/><rect x="219" y="611" width="17" height="17" transform="rotate(0,227.5,619.5)"/><rect x="236" y="288" width="17" height="17" transform="rotate(0,244.5,296.5)"/><rect x="236" y="373" width="17" height="17" transform="rotate(0,244.5,381.5)"/><rect x="236" y="407" width="17" height="17" transform="rotate(0,244.5,415.5)"/><rect x="236" y="441" width="17" height="17" transform="rotate(0,244.5,449.5)"/><rect x="236" y="458" width="17" height="17" transform="rotate(0,244.5,466.5)"/><rect x="236" y="492" width="17" height="17" transform="rotate(0,244.5,500.5)"/><rect x="236" y="509" width="17" height="17" transform="rotate(0,244.5,517.5)"/><rect x="236" y="526" width="17" height="17" transform="rotate(0,244.5,534.5)"/><rect x="236" y="611" width="17" height="17" transform="rotate(0,244.5,619.5)"/><rect x="236" y="645" width="17" height="17" transform="rotate(0,244.5,653.5)"/><rect x="236" y="662" width="17" height="17" transform="rotate(0,244.5,670.5)"/><rect x="236" y="679" width="17" height="17" transform="rotate(0,244.5,687.5)"/><rect x="253" y="288" width="17" height="17" transform="rotate(0,261.5,296.5)"/><rect x="253" y="322" width="17" height="17" transform="rotate(0,261.5,330.5)"/><rect x="253" y="356" width="17" height="17" transform="rotate(0,261.5,364.5)"/><rect x="253" y="390" width="17" height="17" transform="rotate(0,261.5,398.5)"/><rect x="253" y="424" width="17" height="17" transform="rotate(0,261.5,432.5)"/><rect x="253" y="458" width="17" height="17" transform="rotate(0,261.5,466.5)"/><rect x="253" y="492" width="17" height="17" transform="rotate(0,261.5,500.5)"/><rect x="253" y="526" width="17" height="17" transform="rotate(0,261.5,534.5)"/><rect x="253" y="560" width="17" height="17" transform="rotate(0,261.5,568.5)"/><rect x="253" y="594" width="17" height="17" transform="rotate(0,261.5,602.5)"/><rect x="253" y="628" width="17" height="17" transform="rotate(0,261.5,636.5)"/><rect x="253" y="662" width="17" height="17" transform="rotate(0,261.5,670.5)"/><rect x="253" y="696" width="17" height="17" transform="rotate(0,261.5,704.5)"/><rect x="270" y="288" width="17" height="17" transform="rotate(0,278.5,296.5)"/><rect x="270" y="356" width="17" height="17" transform="rotate(0,278.5,364.5)"/><rect x="270" y="390" width="17" height="17" transform="rotate(0,278.5,398.5)"/><rect x="270" y="407" width="17" height="17" transform="rotate(0,278.5,415.5)"/><rect x="270" y="424" width="17" height="17" transform="rotate(0,278.5,432.5)"/><rect x="270" y="441" width="17" height="17" transform="rotate(0,278.5,449.5)"/><rect x="270" y="458" width="17" height="17" transform="rotate(0,278.5,466.5)"/><rect x="270" y="475" width="17" height="17" transform="rotate(0,278.5,483.5)"/><rect x="270" y="509" width="17" height="17" transform="rotate(0,278.5,517.5)"/><rect x="270" y="560" width="17" height="17" transform="rotate(0,278.5,568.5)"/><rect x="270" y="594" width="17" height="17" transform="rotate(0,278.5,602.5)"/><rect x="270" y="611" width="17" height="17" transform="rotate(0,278.5,619.5)"/><rect x="270" y="645" width="17" height="17" transform="rotate(0,278.5,653.5)"/><rect x="270" y="662" width="17" height="17" transform="rotate(0,278.5,670.5)"/><rect x="287" y="169" width="17" height="17" transform="rotate(0,295.5,177.5)"/><rect x="287" y="203" width="17" height="17" transform="rotate(0,295.5,211.5)"/><rect x="287" y="237" width="17" height="17" transform="rotate(0,295.5,245.5)"/><rect x="287" y="254" width="17" height="17" transform="rotate(0,295.5,262.5)"/><rect x="287" y="271" width="17" height="17" transform="rotate(0,295.5,279.5)"/><rect x="287" y="288" width="17" height="17" transform="rotate(0,295.5,296.5)"/><rect x="287" y="305" width="17" height="17" transform="rotate(0,295.5,313.5)"/><rect x="287" y="322" width="17" height="17" transform="rotate(0,295.5,330.5)"/><rect x="287" y="339" width="17" height="17" transform="rotate(0,295.5,347.5)"/><rect x="287" y="356" width="17" height="17" transform="rotate(0,295.5,364.5)"/><rect x="287" y="390" width="17" height="17" transform="rotate(0,295.5,398.5)"/><rect x="287" y="424" width="17" height="17" transform="rotate(0,295.5,432.5)"/><rect x="287" y="441" width="17" height="17" transform="rotate(0,295.5,449.5)"/><rect x="287" y="492" width="17" height="17" transform="rotate(0,295.5,500.5)"/><rect x="287" y="509" width="17" height="17" transform="rotate(0,295.5,517.5)"/><rect x="287" y="526" width="17" height="17" transform="rotate(0,295.5,534.5)"/><rect x="287" y="560" width="17" height="17" transform="rotate(0,295.5,568.5)"/><rect x="287" y="577" width="17" height="17" transform="rotate(0,295.5,585.5)"/><rect x="287" y="594" width="17" height="17" transform="rotate(0,295.5,602.5)"/><rect x="287" y="628" width="17" height="17" transform="rotate(0,295.5,636.5)"/><rect x="287" y="696" width="17" height="17" transform="rotate(0,295.5,704.5)"/><rect x="287" y="713" width="17" height="17" transform="rotate(0,295.5,721.5)"/><rect x="287" y="730" width="17" height="17" transform="rotate(0,295.5,738.5)"/><rect x="287" y="747" width="17" height="17" transform="rotate(0,295.5,755.5)"/><rect x="287" y="781" width="17" height="17" transform="rotate(0,295.5,789.5)"/><rect x="287" y="798" width="17" height="17" transform="rotate(0,295.5,806.5)"/><rect x="287" y="832" width="17" height="17" transform="rotate(0,295.5,840.5)"/><rect x="304" y="152" width="17" height="17" transform="rotate(0,312.5,160.5)"/><rect x="304" y="169" width="17" height="17" transform="rotate(0,312.5,177.5)"/><rect x="304" y="186" width="17" height="17" transform="rotate(0,312.5,194.5)"/><rect x="304" y="203" width="17" height="17" transform="rotate(0,312.5,211.5)"/><rect x="304" y="237" width="17" height="17" transform="rotate(0,312.5,245.5)"/><rect x="304" y="271" width="17" height="17" transform="rotate(0,312.5,279.5)"/><rect x="304" y="288" width="17" height="17" transform="rotate(0,312.5,296.5)"/><rect x="304" y="305" width="17" height="17" transform="rotate(0,312.5,313.5)"/><rect x="304" y="339" width="17" height="17" transform="rotate(0,312.5,347.5)"/><rect x="304" y="373" width="17" height="17" transform="rotate(0,312.5,381.5)"/><rect x="304" y="407" width="17" height="17" transform="rotate(0,312.5,415.5)"/><rect x="304" y="441" width="17" height="17" transform="rotate(0,312.5,449.5)"/><rect x="304" y="458" width="17" height="17" transform="rotate(0,312.5,466.5)"/><rect x="304" y="543" width="17" height="17" transform="rotate(0,312.5,551.5)"/><rect x="304" y="560" width="17" height="17" transform="rotate(0,312.5,568.5)"/><rect x="304" y="594" width="17" height="17" transform="rotate(0,312.5,602.5)"/><rect x="304" y="628" width="17" height="17" transform="rotate(0,312.5,636.5)"/><rect x="304" y="662" width="17" height="17" transform="rotate(0,312.5,670.5)"/><rect x="304" y="696" width="17" height="17" transform="rotate(0,312.5,704.5)"/><rect x="304" y="781" width="17" height="17" transform="rotate(0,312.5,789.5)"/><rect x="304" y="798" width="17" height="17" transform="rotate(0,312.5,806.5)"/><rect x="321" y="152" width="17" height="17" transform="rotate(0,329.5,160.5)"/><rect x="321" y="186" width="17" height="17" transform="rotate(0,329.5,194.5)"/><rect x="321" y="237" width="17" height="17" transform="rotate(0,329.5,245.5)"/><rect x="321" y="254" width="17" height="17" transform="rotate(0,329.5,262.5)"/><rect x="321" y="271" width="17" height="17" transform="rotate(0,329.5,279.5)"/><rect x="321" y="322" width="17" height="17" transform="rotate(0,329.5,330.5)"/><rect x="321" y="339" width="17" height="17" transform="rotate(0,329.5,347.5)"/><rect x="321" y="373" width="17" height="17" transform="rotate(0,329.5,381.5)"/><rect x="321" y="390" width="17" height="17" transform="rotate(0,329.5,398.5)"/><rect x="321" y="407" width="17" height="17" transform="rotate(0,329.5,415.5)"/><rect x="321" y="424" width="17" height="17" transform="rotate(0,329.5,432.5)"/><rect x="321" y="441" width="17" height="17" transform="rotate(0,329.5,449.5)"/><rect x="321" y="458" width="17" height="17" transform="rotate(0,329.5,466.5)"/><rect x="321" y="492" width="17" height="17" transform="rotate(0,329.5,500.5)"/><rect x="321" y="526" width="17" height="17" transform="rotate(0,329.5,534.5)"/><rect x="321" y="543" width="17" height="17" transform="rotate(0,329.5,551.5)"/><rect x="321" y="628" width="17" height="17" transform="rotate(0,329.5,636.5)"/><rect x="321" y="662" width="17" height="17" transform="rotate(0,329.5,670.5)"/><rect x="321" y="679" width="17" height="17" transform="rotate(0,329.5,687.5)"/><rect x="321" y="730" width="17" height="17" transform="rotate(0,329.5,738.5)"/><rect x="321" y="747" width="17" height="17" transform="rotate(0,329.5,755.5)"/><rect x="321" y="781" width="17" height="17" transform="rotate(0,329.5,789.5)"/><rect x="321" y="798" width="17" height="17" transform="rotate(0,329.5,806.5)"/><rect x="321" y="815" width="17" height="17" transform="rotate(0,329.5,823.5)"/><rect x="338" y="152" width="17" height="17" transform="rotate(0,346.5,160.5)"/><rect x="338" y="220" width="17" height="17" transform="rotate(0,346.5,228.5)"/><rect x="338" y="271" width="17" height="17" transform="rotate(0,346.5,279.5)"/><rect x="338" y="305" width="17" height="17" transform="rotate(0,346.5,313.5)"/><rect x="338" y="322" width="17" height="17" transform="rotate(0,346.5,330.5)"/><rect x="338" y="373" width="17" height="17" transform="rotate(0,346.5,381.5)"/><rect x="338" y="407" width="17" height="17" transform="rotate(0,346.5,415.5)"/><rect x="338" y="458" width="17" height="17" transform="rotate(0,346.5,466.5)"/><rect x="338" y="509" width="17" height="17" transform="rotate(0,346.5,517.5)"/><rect x="338" y="543" width="17" height="17" transform="rotate(0,346.5,551.5)"/><rect x="338" y="560" width="17" height="17" transform="rotate(0,346.5,568.5)"/><rect x="338" y="577" width="17" height="17" transform="rotate(0,346.5,585.5)"/><rect x="338" y="611" width="17" height="17" transform="rotate(0,346.5,619.5)"/><rect x="338" y="662" width="17" height="17" transform="rotate(0,346.5,670.5)"/><rect x="338" y="713" width="17" height="17" transform="rotate(0,346.5,721.5)"/><rect x="338" y="798" width="17" height="17" transform="rotate(0,346.5,806.5)"/><rect x="338" y="815" width="17" height="17" transform="rotate(0,346.5,823.5)"/><rect x="355" y="186" width="17" height="17" transform="rotate(0,363.5,194.5)"/><rect x="355" y="237" width="17" height="17" transform="rotate(0,363.5,245.5)"/><rect x="355" y="254" width="17" height="17" transform="rotate(0,363.5,262.5)"/><rect x="355" y="288" width="17" height="17" transform="rotate(0,363.5,296.5)"/><rect x="355" y="322" width="17" height="17" transform="rotate(0,363.5,330.5)"/><rect x="355" y="339" width="17" height="17" transform="rotate(0,363.5,347.5)"/><rect x="355" y="356" width="17" height="17" transform="rotate(0,363.5,364.5)"/><rect x="355" y="475" width="17" height="17" transform="rotate(0,363.5,483.5)"/><rect x="355" y="509" width="17" height="17" transform="rotate(0,363.5,517.5)"/><rect x="355" y="526" width="17" height="17" transform="rotate(0,363.5,534.5)"/><rect x="355" y="543" width="17" height="17" transform="rotate(0,363.5,551.5)"/><rect x="355" y="577" width="17" height="17" transform="rotate(0,363.5,585.5)"/><rect x="355" y="611" width="17" height="17" transform="rotate(0,363.5,619.5)"/><rect x="355" y="645" width="17" height="17" transform="rotate(0,363.5,653.5)"/><rect x="355" y="679" width="17" height="17" transform="rotate(0,363.5,687.5)"/><rect x="355" y="696" width="17" height="17" transform="rotate(0,363.5,704.5)"/><rect x="355" y="713" width="17" height="17" transform="rotate(0,363.5,721.5)"/><rect x="355" y="730" width="17" height="17" transform="rotate(0,363.5,738.5)"/><rect x="355" y="781" width="17" height="17" transform="rotate(0,363.5,789.5)"/><rect x="372" y="169" width="17" height="17" transform="rotate(0,380.5,177.5)"/><rect x="372" y="203" width="17" height="17" transform="rotate(0,380.5,211.5)"/><rect x="372" y="220" width="17" height="17" transform="rotate(0,380.5,228.5)"/><rect x="372" y="271" width="17" height="17" transform="rotate(0,380.5,279.5)"/><rect x="372" y="288" width="17" height="17" transform="rotate(0,380.5,296.5)"/><rect x="372" y="339" width="17" height="17" transform="rotate(0,380.5,347.5)"/><rect x="372" y="356" width="17" height="17" transform="rotate(0,380.5,364.5)"/><rect x="372" y="373" width="17" height="17" transform="rotate(0,380.5,381.5)"/><rect x="372" y="390" width="17" height="17" transform="rotate(0,380.5,398.5)"/><rect x="372" y="407" width="17" height="17" transform="rotate(0,380.5,415.5)"/><rect x="372" y="441" width="17" height="17" transform="rotate(0,380.5,449.5)"/><rect x="372" y="475" width="17" height="17" transform="rotate(0,380.5,483.5)"/><rect x="372" y="492" width="17" height="17" transform="rotate(0,380.5,500.5)"/><rect x="372" y="543" width="17" height="17" transform="rotate(0,380.5,551.5)"/><rect x="372" y="577" width="17" height="17" transform="rotate(0,380.5,585.5)"/><rect x="372" y="611" width="17" height="17" transform="rotate(0,380.5,619.5)"/><rect x="372" y="696" width="17" height="17" transform="rotate(0,380.5,704.5)"/><rect x="372" y="713" width="17" height="17" transform="rotate(0,380.5,721.5)"/><rect x="372" y="730" width="17" height="17" transform="rotate(0,380.5,738.5)"/><rect x="372" y="747" width="17" height="17" transform="rotate(0,380.5,755.5)"/><rect x="372" y="781" width="17" height="17" transform="rotate(0,380.5,789.5)"/><rect x="372" y="798" width="17" height="17" transform="rotate(0,380.5,806.5)"/><rect x="372" y="832" width="17" height="17" transform="rotate(0,380.5,840.5)"/><rect x="389" y="152" width="17" height="17" transform="rotate(0,397.5,160.5)"/><rect x="389" y="169" width="17" height="17" transform="rotate(0,397.5,177.5)"/><rect x="389" y="254" width="17" height="17" transform="rotate(0,397.5,262.5)"/><rect x="389" y="271" width="17" height="17" transform="rotate(0,397.5,279.5)"/><rect x="389" y="288" width="17" height="17" transform="rotate(0,397.5,296.5)"/><rect x="389" y="322" width="17" height="17" transform="rotate(0,397.5,330.5)"/><rect x="389" y="373" width="17" height="17" transform="rotate(0,397.5,381.5)"/><rect x="389" y="407" width="17" height="17" transform="rotate(0,397.5,415.5)"/><rect x="389" y="458" width="17" height="17" transform="rotate(0,397.5,466.5)"/><rect x="389" y="475" width="17" height="17" transform="rotate(0,397.5,483.5)"/><rect x="389" y="526" width="17" height="17" transform="rotate(0,397.5,534.5)"/><rect x="389" y="543" width="17" height="17" transform="rotate(0,397.5,551.5)"/><rect x="389" y="577" width="17" height="17" transform="rotate(0,397.5,585.5)"/><rect x="389" y="645" width="17" height="17" transform="rotate(0,397.5,653.5)"/><rect x="389" y="696" width="17" height="17" transform="rotate(0,397.5,704.5)"/><rect x="389" y="730" width="17" height="17" transform="rotate(0,397.5,738.5)"/><rect x="389" y="764" width="17" height="17" transform="rotate(0,397.5,772.5)"/><rect x="389" y="798" width="17" height="17" transform="rotate(0,397.5,806.5)"/><rect x="389" y="815" width="17" height="17" transform="rotate(0,397.5,823.5)"/><rect x="389" y="832" width="17" height="17" transform="rotate(0,397.5,840.5)"/><rect x="406" y="152" width="17" height="17" transform="rotate(0,414.5,160.5)"/><rect x="406" y="186" width="17" height="17" transform="rotate(0,414.5,194.5)"/><rect x="406" y="237" width="17" height="17" transform="rotate(0,414.5,245.5)"/><rect x="406" y="271" width="17" height="17" transform="rotate(0,414.5,279.5)"/><rect x="406" y="305" width="17" height="17" transform="rotate(0,414.5,313.5)"/><rect x="406" y="339" width="17" height="17" transform="rotate(0,414.5,347.5)"/><rect x="406" y="390" width="17" height="17" transform="rotate(0,414.5,398.5)"/><rect x="406" y="441" width="17" height="17" transform="rotate(0,414.5,449.5)"/><rect x="406" y="509" width="17" height="17" transform="rotate(0,414.5,517.5)"/><rect x="406" y="543" width="17" height="17" transform="rotate(0,414.5,551.5)"/><rect x="406" y="577" width="17" height="17" transform="rotate(0,414.5,585.5)"/><rect x="406" y="611" width="17" height="17" transform="rotate(0,414.5,619.5)"/><rect x="406" y="628" width="17" height="17" transform="rotate(0,414.5,636.5)"/><rect x="406" y="645" width="17" height="17" transform="rotate(0,414.5,653.5)"/><rect x="406" y="679" width="17" height="17" transform="rotate(0,414.5,687.5)"/><rect x="406" y="696" width="17" height="17" transform="rotate(0,414.5,704.5)"/><rect x="406" y="730" width="17" height="17" transform="rotate(0,414.5,738.5)"/><rect x="406" y="764" width="17" height="17" transform="rotate(0,414.5,772.5)"/><rect x="423" y="152" width="17" height="17" transform="rotate(0,431.5,160.5)"/><rect x="423" y="203" width="17" height="17" transform="rotate(0,431.5,211.5)"/><rect x="423" y="220" width="17" height="17" transform="rotate(0,431.5,228.5)"/><rect x="423" y="254" width="17" height="17" transform="rotate(0,431.5,262.5)"/><rect x="423" y="271" width="17" height="17" transform="rotate(0,431.5,279.5)"/><rect x="423" y="288" width="17" height="17" transform="rotate(0,431.5,296.5)"/><rect x="423" y="305" width="17" height="17" transform="rotate(0,431.5,313.5)"/><rect x="423" y="322" width="17" height="17" transform="rotate(0,431.5,330.5)"/><rect x="423" y="339" width="17" height="17" transform="rotate(0,431.5,347.5)"/><rect x="423" y="390" width="17" height="17" transform="rotate(0,431.5,398.5)"/><rect x="423" y="407" width="17" height="17" transform="rotate(0,431.5,415.5)"/><rect x="423" y="441" width="17" height="17" transform="rotate(0,431.5,449.5)"/><rect x="423" y="458" width="17" height="17" transform="rotate(0,431.5,466.5)"/><rect x="423" y="492" width="17" height="17" transform="rotate(0,431.5,500.5)"/><rect x="423" y="509" width="17" height="17" transform="rotate(0,431.5,517.5)"/><rect x="423" y="526" width="17" height="17" transform="rotate(0,431.5,534.5)"/><rect x="423" y="560" width="17" height="17" transform="rotate(0,431.5,568.5)"/><rect x="423" y="577" width="17" height="17" transform="rotate(0,431.5,585.5)"/><rect x="423" y="628" width="17" height="17" transform="rotate(0,431.5,636.5)"/><rect x="423" y="679" width="17" height="17" transform="rotate(0,431.5,687.5)"/><rect x="423" y="696" width="17" height="17" transform="rotate(0,431.5,704.5)"/><rect x="423" y="747" width="17" height="17" transform="rotate(0,431.5,755.5)"/><rect x="423" y="781" width="17" height="17" transform="rotate(0,431.5,789.5)"/><rect x="423" y="815" width="17" height="17" transform="rotate(0,431.5,823.5)"/><rect x="423" y="832" width="17" height="17" transform="rotate(0,431.5,840.5)"/><rect x="440" y="152" width="17" height="17" transform="rotate(0,448.5,160.5)"/><rect x="440" y="169" width="17" height="17" transform="rotate(0,448.5,177.5)"/><rect x="440" y="203" width="17" height="17" transform="rotate(0,448.5,211.5)"/><rect x="440" y="271" width="17" height="17" transform="rotate(0,448.5,279.5)"/><rect x="440" y="356" width="17" height="17" transform="rotate(0,448.5,364.5)"/><rect x="440" y="407" width="17" height="17" transform="rotate(0,448.5,415.5)"/><rect x="440" y="458" width="17" height="17" transform="rotate(0,448.5,466.5)"/><rect x="440" y="475" width="17" height="17" transform="rotate(0,448.5,483.5)"/><rect x="440" y="509" width="17" height="17" transform="rotate(0,448.5,517.5)"/><rect x="440" y="560" width="17" height="17" transform="rotate(0,448.5,568.5)"/><rect x="440" y="577" width="17" height="17" transform="rotate(0,448.5,585.5)"/><rect x="440" y="594" width="17" height="17" transform="rotate(0,448.5,602.5)"/><rect x="440" y="611" width="17" height="17" transform="rotate(0,448.5,619.5)"/><rect x="440" y="628" width="17" height="17" transform="rotate(0,448.5,636.5)"/><rect x="440" y="645" width="17" height="17" transform="rotate(0,448.5,653.5)"/><rect x="440" y="679" width="17" height="17" transform="rotate(0,448.5,687.5)"/><rect x="440" y="730" width="17" height="17" transform="rotate(0,448.5,738.5)"/><rect x="440" y="747" width="17" height="17" transform="rotate(0,448.5,755.5)"/><rect x="440" y="781" width="17" height="17" transform="rotate(0,448.5,789.5)"/><rect x="440" y="798" width="17" height="17" transform="rotate(0,448.5,806.5)"/><rect x="440" y="815" width="17" height="17" transform="rotate(0,448.5,823.5)"/><rect x="440" y="832" width="17" height="17" transform="rotate(0,448.5,840.5)"/><rect x="457" y="152" width="17" height="17" transform="rotate(0,465.5,160.5)"/><rect x="457" y="169" width="17" height="17" transform="rotate(0,465.5,177.5)"/><rect x="457" y="203" width="17" height="17" transform="rotate(0,465.5,211.5)"/><rect x="457" y="237" width="17" height="17" transform="rotate(0,465.5,245.5)"/><rect x="457" y="254" width="17" height="17" transform="rotate(0,465.5,262.5)"/><rect x="457" y="271" width="17" height="17" transform="rotate(0,465.5,279.5)"/><rect x="457" y="288" width="17" height="17" transform="rotate(0,465.5,296.5)"/><rect x="457" y="305" width="17" height="17" transform="rotate(0,465.5,313.5)"/><rect x="457" y="322" width="17" height="17" transform="rotate(0,465.5,330.5)"/><rect x="457" y="373" width="17" height="17" transform="rotate(0,465.5,381.5)"/><rect x="457" y="458" width="17" height="17" transform="rotate(0,465.5,466.5)"/><rect x="457" y="560" width="17" height="17" transform="rotate(0,465.5,568.5)"/><rect x="457" y="577" width="17" height="17" transform="rotate(0,465.5,585.5)"/><rect x="457" y="594" width="17" height="17" transform="rotate(0,465.5,602.5)"/><rect x="457" y="645" width="17" height="17" transform="rotate(0,465.5,653.5)"/><rect x="457" y="662" width="17" height="17" transform="rotate(0,465.5,670.5)"/><rect x="457" y="696" width="17" height="17" transform="rotate(0,465.5,704.5)"/><rect x="457" y="713" width="17" height="17" transform="rotate(0,465.5,721.5)"/><rect x="457" y="764" width="17" height="17" transform="rotate(0,465.5,772.5)"/><rect x="457" y="798" width="17" height="17" transform="rotate(0,465.5,806.5)"/><rect x="457" y="832" width="17" height="17" transform="rotate(0,465.5,840.5)"/><rect x="474" y="169" width="17" height="17" transform="rotate(0,482.5,177.5)"/><rect x="474" y="186" width="17" height="17" transform="rotate(0,482.5,194.5)"/><rect x="474" y="203" width="17" height="17" transform="rotate(0,482.5,211.5)"/><rect x="474" y="220" width="17" height="17" transform="rotate(0,482.5,228.5)"/><rect x="474" y="237" width="17" height="17" transform="rotate(0,482.5,245.5)"/><rect x="474" y="288" width="17" height="17" transform="rotate(0,482.5,296.5)"/><rect x="474" y="305" width="17" height="17" transform="rotate(0,482.5,313.5)"/><rect x="474" y="373" width="17" height="17" transform="rotate(0,482.5,381.5)"/><rect x="474" y="390" width="17" height="17" transform="rotate(0,482.5,398.5)"/><rect x="474" y="407" width="17" height="17" transform="rotate(0,482.5,415.5)"/><rect x="474" y="424" width="17" height="17" transform="rotate(0,482.5,432.5)"/><rect x="474" y="441" width="17" height="17" transform="rotate(0,482.5,449.5)"/><rect x="474" y="475" width="17" height="17" transform="rotate(0,482.5,483.5)"/><rect x="474" y="492" width="17" height="17" transform="rotate(0,482.5,500.5)"/><rect x="474" y="509" width="17" height="17" transform="rotate(0,482.5,517.5)"/><rect x="474" y="611" width="17" height="17" transform="rotate(0,482.5,619.5)"/><rect x="474" y="645" width="17" height="17" transform="rotate(0,482.5,653.5)"/><rect x="474" y="696" width="17" height="17" transform="rotate(0,482.5,704.5)"/><rect x="474" y="747" width="17" height="17" transform="rotate(0,482.5,755.5)"/><rect x="474" y="781" width="17" height="17" transform="rotate(0,482.5,789.5)"/><rect x="474" y="832" width="17" height="17" transform="rotate(0,482.5,840.5)"/><rect x="491" y="152" width="17" height="17" transform="rotate(0,499.5,160.5)"/><rect x="491" y="169" width="17" height="17" transform="rotate(0,499.5,177.5)"/><rect x="491" y="186" width="17" height="17" transform="rotate(0,499.5,194.5)"/><rect x="491" y="203" width="17" height="17" transform="rotate(0,499.5,211.5)"/><rect x="491" y="220" width="17" height="17" transform="rotate(0,499.5,228.5)"/><rect x="491" y="254" width="17" height="17" transform="rotate(0,499.5,262.5)"/><rect x="491" y="288" width="17" height="17" transform="rotate(0,499.5,296.5)"/><rect x="491" y="356" width="17" height="17" transform="rotate(0,499.5,364.5)"/><rect x="491" y="373" width="17" height="17" transform="rotate(0,499.5,381.5)"/><rect x="491" y="407" width="17" height="17" transform="rotate(0,499.5,415.5)"/><rect x="491" y="424" width="17" height="17" transform="rotate(0,499.5,432.5)"/><rect x="491" y="458" width="17" height="17" transform="rotate(0,499.5,466.5)"/><rect x="491" y="475" width="17" height="17" transform="rotate(0,499.5,483.5)"/><rect x="491" y="492" width="17" height="17" transform="rotate(0,499.5,500.5)"/><rect x="491" y="509" width="17" height="17" transform="rotate(0,499.5,517.5)"/><rect x="491" y="526" width="17" height="17" transform="rotate(0,499.5,534.5)"/><rect x="491" y="543" width="17" height="17" transform="rotate(0,499.5,551.5)"/><rect x="491" y="594" width="17" height="17" transform="rotate(0,499.5,602.5)"/><rect x="491" y="611" width="17" height="17" transform="rotate(0,499.5,619.5)"/><rect x="491" y="645" width="17" height="17" transform="rotate(0,499.5,653.5)"/><rect x="491" y="713" width="17" height="17" transform="rotate(0,499.5,721.5)"/><rect x="491" y="730" width="17" height="17" transform="rotate(0,499.5,738.5)"/><rect x="491" y="815" width="17" height="17" transform="rotate(0,499.5,823.5)"/><rect x="491" y="832" width="17" height="17" transform="rotate(0,499.5,840.5)"/><rect x="508" y="152" width="17" height="17" transform="rotate(0,516.5,160.5)"/><rect x="508" y="186" width="17" height="17" transform="rotate(0,516.5,194.5)"/><rect x="508" y="220" width="17" height="17" transform="rotate(0,516.5,228.5)"/><rect x="508" y="271" width="17" height="17" transform="rotate(0,516.5,279.5)"/><rect x="508" y="288" width="17" height="17" transform="rotate(0,516.5,296.5)"/><rect x="508" y="305" width="17" height="17" transform="rotate(0,516.5,313.5)"/><rect x="508" y="322" width="17" height="17" transform="rotate(0,516.5,330.5)"/><rect x="508" y="373" width="17" height="17" transform="rotate(0,516.5,381.5)"/><rect x="508" y="390" width="17" height="17" transform="rotate(0,516.5,398.5)"/><rect x="508" y="407" width="17" height="17" transform="rotate(0,516.5,415.5)"/><rect x="508" y="441" width="17" height="17" transform="rotate(0,516.5,449.5)"/><rect x="508" y="475" width="17" height="17" transform="rotate(0,516.5,483.5)"/><rect x="508" y="492" width="17" height="17" transform="rotate(0,516.5,500.5)"/><rect x="508" y="526" width="17" height="17" transform="rotate(0,516.5,534.5)"/><rect x="508" y="560" width="17" height="17" transform="rotate(0,516.5,568.5)"/><rect x="508" y="577" width="17" height="17" transform="rotate(0,516.5,585.5)"/><rect x="508" y="594" width="17" height="17" transform="rotate(0,516.5,602.5)"/><rect x="508" y="628" width="17" height="17" transform="rotate(0,516.5,636.5)"/><rect x="508" y="645" width="17" height="17" transform="rotate(0,516.5,653.5)"/><rect x="508" y="662" width="17" height="17" transform="rotate(0,516.5,670.5)"/><rect x="508" y="696" width="17" height="17" transform="rotate(0,516.5,704.5)"/><rect x="508" y="730" width="17" height="17" transform="rotate(0,516.5,738.5)"/><rect x="508" y="781" width="17" height="17" transform="rotate(0,516.5,789.5)"/><rect x="508" y="815" width="17" height="17" transform="rotate(0,516.5,823.5)"/><rect x="508" y="832" width="17" height="17" transform="rotate(0,516.5,840.5)"/><rect x="525" y="152" width="17" height="17" transform="rotate(0,533.5,160.5)"/><rect x="525" y="203" width="17" height="17" transform="rotate(0,533.5,211.5)"/><rect x="525" y="237" width="17" height="17" transform="rotate(0,533.5,245.5)"/><rect x="525" y="254" width="17" height="17" transform="rotate(0,533.5,262.5)"/><rect x="525" y="305" width="17" height="17" transform="rotate(0,533.5,313.5)"/><rect x="525" y="322" width="17" height="17" transform="rotate(0,533.5,330.5)"/><rect x="525" y="356" width="17" height="17" transform="rotate(0,533.5,364.5)"/><rect x="525" y="458" width="17" height="17" transform="rotate(0,533.5,466.5)"/><rect x="525" y="526" width="17" height="17" transform="rotate(0,533.5,534.5)"/><rect x="525" y="577" width="17" height="17" transform="rotate(0,533.5,585.5)"/><rect x="525" y="628" width="17" height="17" transform="rotate(0,533.5,636.5)"/><rect x="525" y="645" width="17" height="17" transform="rotate(0,533.5,653.5)"/><rect x="525" y="679" width="17" height="17" transform="rotate(0,533.5,687.5)"/><rect x="525" y="696" width="17" height="17" transform="rotate(0,533.5,704.5)"/><rect x="525" y="747" width="17" height="17" transform="rotate(0,533.5,755.5)"/><rect x="525" y="764" width="17" height="17" transform="rotate(0,533.5,772.5)"/><rect x="525" y="798" width="17" height="17" transform="rotate(0,533.5,806.5)"/><rect x="525" y="815" width="17" height="17" transform="rotate(0,533.5,823.5)"/><rect x="542" y="169" width="17" height="17" transform="rotate(0,550.5,177.5)"/><rect x="542" y="237" width="17" height="17" transform="rotate(0,550.5,245.5)"/><rect x="542" y="288" width="17" height="17" transform="rotate(0,550.5,296.5)"/><rect x="542" y="339" width="17" height="17" transform="rotate(0,550.5,347.5)"/><rect x="542" y="356" width="17" height="17" transform="rotate(0,550.5,364.5)"/><rect x="542" y="373" width="17" height="17" transform="rotate(0,550.5,381.5)"/><rect x="542" y="407" width="17" height="17" transform="rotate(0,550.5,415.5)"/><rect x="542" y="458" width="17" height="17" transform="rotate(0,550.5,466.5)"/><rect x="542" y="475" width="17" height="17" transform="rotate(0,550.5,483.5)"/><rect x="542" y="526" width="17" height="17" transform="rotate(0,550.5,534.5)"/><rect x="542" y="543" width="17" height="17" transform="rotate(0,550.5,551.5)"/><rect x="542" y="577" width="17" height="17" transform="rotate(0,550.5,585.5)"/><rect x="542" y="662" width="17" height="17" transform="rotate(0,550.5,670.5)"/><rect x="542" y="679" width="17" height="17" transform="rotate(0,550.5,687.5)"/><rect x="542" y="747" width="17" height="17" transform="rotate(0,550.5,755.5)"/><rect x="542" y="798" width="17" height="17" transform="rotate(0,550.5,806.5)"/><rect x="542" y="815" width="17" height="17" transform="rotate(0,550.5,823.5)"/><rect x="559" y="152" width="17" height="17" transform="rotate(0,567.5,160.5)"/><rect x="559" y="220" width="17" height="17" transform="rotate(0,567.5,228.5)"/><rect x="559" y="254" width="17" height="17" transform="rotate(0,567.5,262.5)"/><rect x="559" y="288" width="17" height="17" transform="rotate(0,567.5,296.5)"/><rect x="559" y="305" width="17" height="17" transform="rotate(0,567.5,313.5)"/><rect x="559" y="322" width="17" height="17" transform="rotate(0,567.5,330.5)"/><rect x="559" y="356" width="17" height="17" transform="rotate(0,567.5,364.5)"/><rect x="559" y="373" width="17" height="17" transform="rotate(0,567.5,381.5)"/><rect x="559" y="424" width="17" height="17" transform="rotate(0,567.5,432.5)"/><rect x="559" y="458" width="17" height="17" transform="rotate(0,567.5,466.5)"/><rect x="559" y="492" width="17" height="17" transform="rotate(0,567.5,500.5)"/><rect x="559" y="526" width="17" height="17" transform="rotate(0,567.5,534.5)"/><rect x="559" y="560" width="17" height="17" transform="rotate(0,567.5,568.5)"/><rect x="559" y="577" width="17" height="17" transform="rotate(0,567.5,585.5)"/><rect x="559" y="645" width="17" height="17" transform="rotate(0,567.5,653.5)"/><rect x="559" y="679" width="17" height="17" transform="rotate(0,567.5,687.5)"/><rect x="559" y="696" width="17" height="17" transform="rotate(0,567.5,704.5)"/><rect x="559" y="713" width="17" height="17" transform="rotate(0,567.5,721.5)"/><rect x="559" y="730" width="17" height="17" transform="rotate(0,567.5,738.5)"/><rect x="576" y="152" width="17" height="17" transform="rotate(0,584.5,160.5)"/><rect x="576" y="169" width="17" height="17" transform="rotate(0,584.5,177.5)"/><rect x="576" y="186" width="17" height="17" transform="rotate(0,584.5,194.5)"/><rect x="576" y="237" width="17" height="17" transform="rotate(0,584.5,245.5)"/><rect x="576" y="288" width="17" height="17" transform="rotate(0,584.5,296.5)"/><rect x="576" y="305" width="17" height="17" transform="rotate(0,584.5,313.5)"/><rect x="576" y="373" width="17" height="17" transform="rotate(0,584.5,381.5)"/><rect x="576" y="390" width="17" height="17" transform="rotate(0,584.5,398.5)"/><rect x="576" y="407" width="17" height="17" transform="rotate(0,584.5,415.5)"/><rect x="576" y="458" width="17" height="17" transform="rotate(0,584.5,466.5)"/><rect x="576" y="492" width="17" height="17" transform="rotate(0,584.5,500.5)"/><rect x="576" y="509" width="17" height="17" transform="rotate(0,584.5,517.5)"/><rect x="576" y="526" width="17" height="17" transform="rotate(0,584.5,534.5)"/><rect x="576" y="560" width="17" height="17" transform="rotate(0,584.5,568.5)"/><rect x="576" y="577" width="17" height="17" transform="rotate(0,584.5,585.5)"/><rect x="576" y="594" width="17" height="17" transform="rotate(0,584.5,602.5)"/><rect x="576" y="662" width="17" height="17" transform="rotate(0,584.5,670.5)"/><rect x="576" y="679" width="17" height="17" transform="rotate(0,584.5,687.5)"/><rect x="576" y="713" width="17" height="17" transform="rotate(0,584.5,721.5)"/><rect x="576" y="781" width="17" height="17" transform="rotate(0,584.5,789.5)"/><rect x="576" y="832" width="17" height="17" transform="rotate(0,584.5,840.5)"/><rect x="593" y="152" width="17" height="17" transform="rotate(0,601.5,160.5)"/><rect x="593" y="169" width="17" height="17" transform="rotate(0,601.5,177.5)"/><rect x="593" y="186" width="17" height="17" transform="rotate(0,601.5,194.5)"/><rect x="593" y="254" width="17" height="17" transform="rotate(0,601.5,262.5)"/><rect x="593" y="356" width="17" height="17" transform="rotate(0,601.5,364.5)"/><rect x="593" y="492" width="17" height="17" transform="rotate(0,601.5,500.5)"/><rect x="593" y="509" width="17" height="17" transform="rotate(0,601.5,517.5)"/><rect x="593" y="526" width="17" height="17" transform="rotate(0,601.5,534.5)"/><rect x="593" y="543" width="17" height="17" transform="rotate(0,601.5,551.5)"/><rect x="593" y="594" width="17" height="17" transform="rotate(0,601.5,602.5)"/><rect x="593" y="628" width="17" height="17" transform="rotate(0,601.5,636.5)"/><rect x="593" y="645" width="17" height="17" transform="rotate(0,601.5,653.5)"/><rect x="593" y="696" width="17" height="17" transform="rotate(0,601.5,704.5)"/><rect x="593" y="713" width="17" height="17" transform="rotate(0,601.5,721.5)"/><rect x="593" y="747" width="17" height="17" transform="rotate(0,601.5,755.5)"/><rect x="593" y="815" width="17" height="17" transform="rotate(0,601.5,823.5)"/><rect x="593" y="832" width="17" height="17" transform="rotate(0,601.5,840.5)"/><rect x="610" y="169" width="17" height="17" transform="rotate(0,618.5,177.5)"/><rect x="610" y="186" width="17" height="17" transform="rotate(0,618.5,194.5)"/><rect x="610" y="237" width="17" height="17" transform="rotate(0,618.5,245.5)"/><rect x="610" y="271" width="17" height="17" transform="rotate(0,618.5,279.5)"/><rect x="610" y="288" width="17" height="17" transform="rotate(0,618.5,296.5)"/><rect x="610" y="305" width="17" height="17" transform="rotate(0,618.5,313.5)"/><rect x="610" y="322" width="17" height="17" transform="rotate(0,618.5,330.5)"/><rect x="610" y="339" width="17" height="17" transform="rotate(0,618.5,347.5)"/><rect x="610" y="356" width="17" height="17" transform="rotate(0,618.5,364.5)"/><rect x="610" y="407" width="17" height="17" transform="rotate(0,618.5,415.5)"/><rect x="610" y="441" width="17" height="17" transform="rotate(0,618.5,449.5)"/><rect x="610" y="458" width="17" height="17" transform="rotate(0,618.5,466.5)"/><rect x="610" y="475" width="17" height="17" transform="rotate(0,618.5,483.5)"/><rect x="610" y="492" width="17" height="17" transform="rotate(0,618.5,500.5)"/><rect x="610" y="509" width="17" height="17" transform="rotate(0,618.5,517.5)"/><rect x="610" y="526" width="17" height="17" transform="rotate(0,618.5,534.5)"/><rect x="610" y="543" width="17" height="17" transform="rotate(0,618.5,551.5)"/><rect x="610" y="560" width="17" height="17" transform="rotate(0,618.5,568.5)"/><rect x="610" y="577" width="17" height="17" transform="rotate(0,618.5,585.5)"/><rect x="610" y="628" width="17" height="17" transform="rotate(0,618.5,636.5)"/><rect x="610" y="645" width="17" height="17" transform="rotate(0,618.5,653.5)"/><rect x="610" y="696" width="17" height="17" transform="rotate(0,618.5,704.5)"/><rect x="610" y="747" width="17" height="17" transform="rotate(0,618.5,755.5)"/><rect x="610" y="815" width="17" height="17" transform="rotate(0,618.5,823.5)"/><rect x="627" y="169" width="17" height="17" transform="rotate(0,635.5,177.5)"/><rect x="627" y="186" width="17" height="17" transform="rotate(0,635.5,194.5)"/><rect x="627" y="254" width="17" height="17" transform="rotate(0,635.5,262.5)"/><rect x="627" y="271" width="17" height="17" transform="rotate(0,635.5,279.5)"/><rect x="627" y="288" width="17" height="17" transform="rotate(0,635.5,296.5)"/><rect x="627" y="305" width="17" height="17" transform="rotate(0,635.5,313.5)"/><rect x="627" y="322" width="17" height="17" transform="rotate(0,635.5,330.5)"/><rect x="627" y="373" width="17" height="17" transform="rotate(0,635.5,381.5)"/><rect x="627" y="424" width="17" height="17" transform="rotate(0,635.5,432.5)"/><rect x="627" y="458" width="17" height="17" transform="rotate(0,635.5,466.5)"/><rect x="627" y="492" width="17" height="17" transform="rotate(0,635.5,500.5)"/><rect x="627" y="509" width="17" height="17" transform="rotate(0,635.5,517.5)"/><rect x="627" y="526" width="17" height="17" transform="rotate(0,635.5,534.5)"/><rect x="627" y="560" width="17" height="17" transform="rotate(0,635.5,568.5)"/><rect x="627" y="611" width="17" height="17" transform="rotate(0,635.5,619.5)"/><rect x="627" y="645" width="17" height="17" transform="rotate(0,635.5,653.5)"/><rect x="627" y="696" width="17" height="17" transform="rotate(0,635.5,704.5)"/><rect x="627" y="713" width="17" height="17" transform="rotate(0,635.5,721.5)"/><rect x="627" y="832" width="17" height="17" transform="rotate(0,635.5,840.5)"/><rect x="644" y="169" width="17" height="17" transform="rotate(0,652.5,177.5)"/><rect x="644" y="220" width="17" height="17" transform="rotate(0,652.5,228.5)"/><rect x="644" y="237" width="17" height="17" transform="rotate(0,652.5,245.5)"/><rect x="644" y="271" width="17" height="17" transform="rotate(0,652.5,279.5)"/><rect x="644" y="305" width="17" height="17" transform="rotate(0,652.5,313.5)"/><rect x="644" y="356" width="17" height="17" transform="rotate(0,652.5,364.5)"/><rect x="644" y="373" width="17" height="17" transform="rotate(0,652.5,381.5)"/><rect x="644" y="390" width="17" height="17" transform="rotate(0,652.5,398.5)"/><rect x="644" y="407" width="17" height="17" transform="rotate(0,652.5,415.5)"/><rect x="644" y="475" width="17" height="17" transform="rotate(0,652.5,483.5)"/><rect x="644" y="492" width="17" height="17" transform="rotate(0,652.5,500.5)"/><rect x="644" y="509" width="17" height="17" transform="rotate(0,652.5,517.5)"/><rect x="644" y="526" width="17" height="17" transform="rotate(0,652.5,534.5)"/><rect x="644" y="560" width="17" height="17" transform="rotate(0,652.5,568.5)"/><rect x="644" y="594" width="17" height="17" transform="rotate(0,652.5,602.5)"/><rect x="644" y="628" width="17" height="17" transform="rotate(0,652.5,636.5)"/><rect x="644" y="645" width="17" height="17" transform="rotate(0,652.5,653.5)"/><rect x="644" y="679" width="17" height="17" transform="rotate(0,652.5,687.5)"/><rect x="644" y="730" width="17" height="17" transform="rotate(0,652.5,738.5)"/><rect x="644" y="747" width="17" height="17" transform="rotate(0,652.5,755.5)"/><rect x="644" y="781" width="17" height="17" transform="rotate(0,652.5,789.5)"/><rect x="644" y="798" width="17" height="17" transform="rotate(0,652.5,806.5)"/><rect x="644" y="832" width="17" height="17" transform="rotate(0,652.5,840.5)"/><rect x="661" y="152" width="17" height="17" transform="rotate(0,669.5,160.5)"/><rect x="661" y="220" width="17" height="17" transform="rotate(0,669.5,228.5)"/><rect x="661" y="254" width="17" height="17" transform="rotate(0,669.5,262.5)"/><rect x="661" y="271" width="17" height="17" transform="rotate(0,669.5,279.5)"/><rect x="661" y="305" width="17" height="17" transform="rotate(0,669.5,313.5)"/><rect x="661" y="322" width="17" height="17" transform="rotate(0,669.5,330.5)"/><rect x="661" y="407" width="17" height="17" transform="rotate(0,669.5,415.5)"/><rect x="661" y="441" width="17" height="17" transform="rotate(0,669.5,449.5)"/><rect x="661" y="458" width="17" height="17" transform="rotate(0,669.5,466.5)"/><rect x="661" y="492" width="17" height="17" transform="rotate(0,669.5,500.5)"/><rect x="661" y="543" width="17" height="17" transform="rotate(0,669.5,551.5)"/><rect x="661" y="560" width="17" height="17" transform="rotate(0,669.5,568.5)"/><rect x="661" y="628" width="17" height="17" transform="rotate(0,669.5,636.5)"/><rect x="661" y="645" width="17" height="17" transform="rotate(0,669.5,653.5)"/><rect x="661" y="662" width="17" height="17" transform="rotate(0,669.5,670.5)"/><rect x="661" y="696" width="17" height="17" transform="rotate(0,669.5,704.5)"/><rect x="661" y="747" width="17" height="17" transform="rotate(0,669.5,755.5)"/><rect x="661" y="781" width="17" height="17" transform="rotate(0,669.5,789.5)"/><rect x="661" y="832" width="17" height="17" transform="rotate(0,669.5,840.5)"/><rect x="678" y="186" width="17" height="17" transform="rotate(0,686.5,194.5)"/><rect x="678" y="203" width="17" height="17" transform="rotate(0,686.5,211.5)"/><rect x="678" y="237" width="17" height="17" transform="rotate(0,686.5,245.5)"/><rect x="678" y="271" width="17" height="17" transform="rotate(0,686.5,279.5)"/><rect x="678" y="305" width="17" height="17" transform="rotate(0,686.5,313.5)"/><rect x="678" y="356" width="17" height="17" transform="rotate(0,686.5,364.5)"/><rect x="678" y="373" width="17" height="17" transform="rotate(0,686.5,381.5)"/><rect x="678" y="407" width="17" height="17" transform="rotate(0,686.5,415.5)"/><rect x="678" y="492" width="17" height="17" transform="rotate(0,686.5,500.5)"/><rect x="678" y="526" width="17" height="17" transform="rotate(0,686.5,534.5)"/><rect x="678" y="560" width="17" height="17" transform="rotate(0,686.5,568.5)"/><rect x="678" y="628" width="17" height="17" transform="rotate(0,686.5,636.5)"/><rect x="678" y="645" width="17" height="17" transform="rotate(0,686.5,653.5)"/><rect x="678" y="713" width="17" height="17" transform="rotate(0,686.5,721.5)"/><rect x="678" y="764" width="17" height="17" transform="rotate(0,686.5,772.5)"/><rect x="678" y="781" width="17" height="17" transform="rotate(0,686.5,789.5)"/><rect x="678" y="815" width="17" height="17" transform="rotate(0,686.5,823.5)"/><rect x="678" y="832" width="17" height="17" transform="rotate(0,686.5,840.5)"/><rect x="695" y="152" width="17" height="17" transform="rotate(0,703.5,160.5)"/><rect x="695" y="203" width="17" height="17" transform="rotate(0,703.5,211.5)"/><rect x="695" y="220" width="17" height="17" transform="rotate(0,703.5,228.5)"/><rect x="695" y="237" width="17" height="17" transform="rotate(0,703.5,245.5)"/><rect x="695" y="254" width="17" height="17" transform="rotate(0,703.5,262.5)"/><rect x="695" y="288" width="17" height="17" transform="rotate(0,703.5,296.5)"/><rect x="695" y="305" width="17" height="17" transform="rotate(0,703.5,313.5)"/><rect x="695" y="322" width="17" height="17" transform="rotate(0,703.5,330.5)"/><rect x="695" y="390" width="17" height="17" transform="rotate(0,703.5,398.5)"/><rect x="695" y="407" width="17" height="17" transform="rotate(0,703.5,415.5)"/><rect x="695" y="424" width="17" height="17" transform="rotate(0,703.5,432.5)"/><rect x="695" y="458" width="17" height="17" transform="rotate(0,703.5,466.5)"/><rect x="695" y="526" width="17" height="17" transform="rotate(0,703.5,534.5)"/><rect x="695" y="577" width="17" height="17" transform="rotate(0,703.5,585.5)"/><rect x="695" y="594" width="17" height="17" transform="rotate(0,703.5,602.5)"/><rect x="695" y="611" width="17" height="17" transform="rotate(0,703.5,619.5)"/><rect x="695" y="628" width="17" height="17" transform="rotate(0,703.5,636.5)"/><rect x="695" y="645" width="17" height="17" transform="rotate(0,703.5,653.5)"/><rect x="695" y="696" width="17" height="17" transform="rotate(0,703.5,704.5)"/><rect x="695" y="713" width="17" height="17" transform="rotate(0,703.5,721.5)"/><rect x="695" y="730" width="17" height="17" transform="rotate(0,703.5,738.5)"/><rect x="695" y="747" width="17" height="17" transform="rotate(0,703.5,755.5)"/><rect x="695" y="764" width="17" height="17" transform="rotate(0,703.5,772.5)"/><rect x="695" y="798" width="17" height="17" transform="rotate(0,703.5,806.5)"/><rect x="695" y="815" width="17" height="17" transform="rotate(0,703.5,823.5)"/><rect x="695" y="832" width="17" height="17" transform="rotate(0,703.5,840.5)"/><rect x="712" y="288" width="17" height="17" transform="rotate(0,720.5,296.5)"/><rect x="712" y="322" width="17" height="17" transform="rotate(0,720.5,330.5)"/><rect x="712" y="339" width="17" height="17" transform="rotate(0,720.5,347.5)"/><rect x="712" y="356" width="17" height="17" transform="rotate(0,720.5,364.5)"/><rect x="712" y="407" width="17" height="17" transform="rotate(0,720.5,415.5)"/><rect x="712" y="475" width="17" height="17" transform="rotate(0,720.5,483.5)"/><rect x="712" y="543" width="17" height="17" transform="rotate(0,720.5,551.5)"/><rect x="712" y="560" width="17" height="17" transform="rotate(0,720.5,568.5)"/><rect x="712" y="577" width="17" height="17" transform="rotate(0,720.5,585.5)"/><rect x="712" y="611" width="17" height="17" transform="rotate(0,720.5,619.5)"/><rect x="712" y="628" width="17" height="17" transform="rotate(0,720.5,636.5)"/><rect x="712" y="679" width="17" height="17" transform="rotate(0,720.5,687.5)"/><rect x="712" y="696" width="17" height="17" transform="rotate(0,720.5,704.5)"/><rect x="712" y="764" width="17" height="17" transform="rotate(0,720.5,772.5)"/><rect x="712" y="798" width="17" height="17" transform="rotate(0,720.5,806.5)"/><rect x="712" y="815" width="17" height="17" transform="rotate(0,720.5,823.5)"/><rect x="712" y="832" width="17" height="17" transform="rotate(0,720.5,840.5)"/><rect x="729" y="288" width="17" height="17" transform="rotate(0,737.5,296.5)"/><rect x="729" y="339" width="17" height="17" transform="rotate(0,737.5,347.5)"/><rect x="729" y="373" width="17" height="17" transform="rotate(0,737.5,381.5)"/><rect x="729" y="390" width="17" height="17" transform="rotate(0,737.5,398.5)"/><rect x="729" y="492" width="17" height="17" transform="rotate(0,737.5,500.5)"/><rect x="729" y="509" width="17" height="17" transform="rotate(0,737.5,517.5)"/><rect x="729" y="526" width="17" height="17" transform="rotate(0,737.5,534.5)"/><rect x="729" y="560" width="17" height="17" transform="rotate(0,737.5,568.5)"/><rect x="729" y="628" width="17" height="17" transform="rotate(0,737.5,636.5)"/><rect x="729" y="662" width="17" height="17" transform="rotate(0,737.5,670.5)"/><rect x="729" y="679" width="17" height="17" transform="rotate(0,737.5,687.5)"/><rect x="729" y="696" width="17" height="17" transform="rotate(0,737.5,704.5)"/><rect x="729" y="730" width="17" height="17" transform="rotate(0,737.5,738.5)"/><rect x="729" y="764" width="17" height="17" transform="rotate(0,737.5,772.5)"/><rect x="729" y="781" width="17" height="17" transform="rotate(0,737.5,789.5)"/><rect x="729" y="798" width="17" height="17" transform="rotate(0,737.5,806.5)"/><rect x="729" y="815" width="17" height="17" transform="rotate(0,737.5,823.5)"/><rect x="746" y="288" width="17" height="17" transform="rotate(0,754.5,296.5)"/><rect x="746" y="322" width="17" height="17" transform="rotate(0,754.5,330.5)"/><rect x="746" y="339" width="17" height="17" transform="rotate(0,754.5,347.5)"/><rect x="746" y="424" width="17" height="17" transform="rotate(0,754.5,432.5)"/><rect x="746" y="441" width="17" height="17" transform="rotate(0,754.5,449.5)"/><rect x="746" y="458" width="17" height="17" transform="rotate(0,754.5,466.5)"/><rect x="746" y="492" width="17" height="17" transform="rotate(0,754.5,500.5)"/><rect x="746" y="577" width="17" height="17" transform="rotate(0,754.5,585.5)"/><rect x="746" y="594" width="17" height="17" transform="rotate(0,754.5,602.5)"/><rect x="746" y="628" width="17" height="17" transform="rotate(0,754.5,636.5)"/><rect x="746" y="696" width="17" height="17" transform="rotate(0,754.5,704.5)"/><rect x="746" y="764" width="17" height="17" transform="rotate(0,754.5,772.5)"/><rect x="746" y="798" width="17" height="17" transform="rotate(0,754.5,806.5)"/><rect x="746" y="815" width="17" height="17" transform="rotate(0,754.5,823.5)"/><rect x="746" y="832" width="17" height="17" transform="rotate(0,754.5,840.5)"/><rect x="763" y="305" width="17" height="17" transform="rotate(0,771.5,313.5)"/><rect x="763" y="322" width="17" height="17" transform="rotate(0,771.5,330.5)"/><rect x="763" y="373" width="17" height="17" transform="rotate(0,771.5,381.5)"/><rect x="763" y="390" width="17" height="17" transform="rotate(0,771.5,398.5)"/><rect x="763" y="407" width="17" height="17" transform="rotate(0,771.5,415.5)"/><rect x="763" y="441" width="17" height="17" transform="rotate(0,771.5,449.5)"/><rect x="763" y="475" width="17" height="17" transform="rotate(0,771.5,483.5)"/><rect x="763" y="492" width="17" height="17" transform="rotate(0,771.5,500.5)"/><rect x="763" y="526" width="17" height="17" transform="rotate(0,771.5,534.5)"/><rect x="763" y="543" width="17" height="17" transform="rotate(0,771.5,551.5)"/><rect x="763" y="594" width="17" height="17" transform="rotate(0,771.5,602.5)"/><rect x="763" y="645" width="17" height="17" transform="rotate(0,771.5,653.5)"/><rect x="763" y="696" width="17" height="17" transform="rotate(0,771.5,704.5)"/><rect x="763" y="713" width="17" height="17" transform="rotate(0,771.5,721.5)"/><rect x="763" y="730" width="17" height="17" transform="rotate(0,771.5,738.5)"/><rect x="763" y="747" width="17" height="17" transform="rotate(0,771.5,755.5)"/><rect x="763" y="764" width="17" height="17" transform="rotate(0,771.5,772.5)"/><rect x="763" y="781" width="17" height="17" transform="rotate(0,771.5,789.5)"/><rect x="763" y="832" width="17" height="17" transform="rotate(0,771.5,840.5)"/><rect x="780" y="288" width="17" height="17" transform="rotate(0,788.5,296.5)"/><rect x="780" y="339" width="17" height="17" transform="rotate(0,788.5,347.5)"/><rect x="780" y="373" width="17" height="17" transform="rotate(0,788.5,381.5)"/><rect x="780" y="407" width="17" height="17" transform="rotate(0,788.5,415.5)"/><rect x="780" y="441" width="17" height="17" transform="rotate(0,788.5,449.5)"/><rect x="780" y="458" width="17" height="17" transform="rotate(0,788.5,466.5)"/><rect x="780" y="475" width="17" height="17" transform="rotate(0,788.5,483.5)"/><rect x="780" y="526" width="17" height="17" transform="rotate(0,788.5,534.5)"/><rect x="780" y="560" width="17" height="17" transform="rotate(0,788.5,568.5)"/><rect x="780" y="645" width="17" height="17" transform="rotate(0,788.5,653.5)"/><rect x="780" y="662" width="17" height="17" transform="rotate(0,788.5,670.5)"/><rect x="780" y="679" width="17" height="17" transform="rotate(0,788.5,687.5)"/><rect x="780" y="696" width="17" height="17" transform="rotate(0,788.5,704.5)"/><rect x="780" y="713" width="17" height="17" transform="rotate(0,788.5,721.5)"/><rect x="780" y="730" width="17" height="17" transform="rotate(0,788.5,738.5)"/><rect x="780" y="764" width="17" height="17" transform="rotate(0,788.5,772.5)"/><rect x="780" y="815" width="17" height="17" transform="rotate(0,788.5,823.5)"/><rect x="780" y="832" width="17" height="17" transform="rotate(0,788.5,840.5)"/><rect x="797" y="305" width="17" height="17" transform="rotate(0,805.5,313.5)"/><rect x="797" y="339" width="17" height="17" transform="rotate(0,805.5,347.5)"/><rect x="797" y="356" width="17" height="17" transform="rotate(0,805.5,364.5)"/><rect x="797" y="373" width="17" height="17" transform="rotate(0,805.5,381.5)"/><rect x="797" y="390" width="17" height="17" transform="rotate(0,805.5,398.5)"/><rect x="797" y="407" width="17" height="17" transform="rotate(0,805.5,415.5)"/><rect x="797" y="441" width="17" height="17" transform="rotate(0,805.5,449.5)"/><rect x="797" y="458" width="17" height="17" transform="rotate(0,805.5,466.5)"/><rect x="797" y="475" width="17" height="17" transform="rotate(0,805.5,483.5)"/><rect x="797" y="492" width="17" height="17" transform="rotate(0,805.5,500.5)"/><rect x="797" y="509" width="17" height="17" transform="rotate(0,805.5,517.5)"/><rect x="797" y="526" width="17" height="17" transform="rotate(0,805.5,534.5)"/><rect x="797" y="543" width="17" height="17" transform="rotate(0,805.5,551.5)"/><rect x="797" y="594" width="17" height="17" transform="rotate(0,805.5,602.5)"/><rect x="797" y="679" width="17" height="17" transform="rotate(0,805.5,687.5)"/><rect x="797" y="696" width="17" height="17" transform="rotate(0,805.5,704.5)"/><rect x="797" y="764" width="17" height="17" transform="rotate(0,805.5,772.5)"/><rect x="797" y="781" width="17" height="17" transform="rotate(0,805.5,789.5)"/><rect x="797" y="815" width="17" height="17" transform="rotate(0,805.5,823.5)"/><rect x="797" y="832" width="17" height="17" transform="rotate(0,805.5,840.5)"/><rect x="814" y="288" width="17" height="17" transform="rotate(0,822.5,296.5)"/><rect x="814" y="373" width="17" height="17" transform="rotate(0,822.5,381.5)"/><rect x="814" y="390" width="17" height="17" transform="rotate(0,822.5,398.5)"/><rect x="814" y="407" width="17" height="17" transform="rotate(0,822.5,415.5)"/><rect x="814" y="424" width="17" height="17" transform="rotate(0,822.5,432.5)"/><rect x="814" y="475" width="17" height="17" transform="rotate(0,822.5,483.5)"/><rect x="814" y="509" width="17" height="17" transform="rotate(0,822.5,517.5)"/><rect x="814" y="526" width="17" height="17" transform="rotate(0,822.5,534.5)"/><rect x="814" y="543" width="17" height="17" transform="rotate(0,822.5,551.5)"/><rect x="814" y="577" width="17" height="17" transform="rotate(0,822.5,585.5)"/><rect x="814" y="611" width="17" height="17" transform="rotate(0,822.5,619.5)"/><rect x="814" y="645" width="17" height="17" transform="rotate(0,822.5,653.5)"/><rect x="814" y="662" width="17" height="17" transform="rotate(0,822.5,670.5)"/><rect x="814" y="679" width="17" height="17" transform="rotate(0,822.5,687.5)"/><rect x="814" y="696" width="17" height="17" transform="rotate(0,822.5,704.5)"/><rect x="814" y="713" width="17" height="17" transform="rotate(0,822.5,721.5)"/><rect x="814" y="747" width="17" height="17" transform="rotate(0,822.5,755.5)"/><rect x="814" y="815" width="17" height="17" transform="rotate(0,822.5,823.5)"/><rect x="831" y="305" width="17" height="17" transform="rotate(0,839.5,313.5)"/><rect x="831" y="390" width="17" height="17" transform="rotate(0,839.5,398.5)"/><rect x="831" y="458" width="17" height="17" transform="rotate(0,839.5,466.5)"/><rect x="831" y="526" width="17" height="17" transform="rotate(0,839.5,534.5)"/><rect x="831" y="543" width="17" height="17" transform="rotate(0,839.5,551.5)"/><rect x="831" y="611" width="17" height="17" transform="rotate(0,839.5,619.5)"/><rect x="831" y="645" width="17" height="17" transform="rotate(0,839.5,653.5)"/><rect x="831" y="662" width="17" height="17" transform="rotate(0,839.5,670.5)"/><rect x="831" y="696" width="17" height="17" transform="rotate(0,839.5,704.5)"/><rect x="831" y="747" width="17" height="17" transform="rotate(0,839.5,755.5)"/><rect x="831" y="764" width="17" height="17" transform="rotate(0,839.5,772.5)"/><rect x="831" y="798" width="17" height="17" transform="rotate(0,839.5,806.5)"/><rect x="831" y="815" width="17" height="17" transform="rotate(0,839.5,823.5)"/></clipPath><linearGradient id="dot-color" gradientUnits="userSpaceOnUse" x1="151" y1="501" x2="848" y2="501"><stop offset="0%" stop-color="#000000"/><stop offset="100%" stop-color="#333333"/></linearGradient><clipPath id="clip-path-corners-square-color-0-0"><rect x="151" y="152" width="17" height="17" transform="rotate(0,159.5,160.5)"/><rect x="151" y="169" width="17" height="17" transform="rotate(0,159.5,177.5)"/><rect x="151" y="186" width="17" height="17" transform="rotate(0,159.5,194.5)"/><rect x="151" y="203" width="17" height="17" transform="rotate(0,159.5,211.5)"/><rect x="151" y="220" width="17" height="17" transform="rotate(0,159.5,228.5)"/><rect x="151" y="237" width="17" height="17" transform="rotate(0,159.5,245.5)"/><rect x="151" y="254" width="17" height="17" transform="rotate(0,159.5,262.5)"/><rect x="168" y="152" width="17" height="17" transform="rotate(0,176.5,160.5)"/><rect x="168" y="254" width="17" height="17" transform="rotate(0,176.5,262.5)"/><rect x="185" y="152" width="17" height="17" transform="rotate(0,193.5,160.5)"/><rect x="185" y="254" width="17" height="17" transform="rotate(0,193.5,262.5)"/><rect x="202" y="152" width="17" height="17" transform="rotate(0,210.5,160.5)"/><rect x="202" y="254" width="17" height="17" transform="rotate(0,210.5,262.5)"/><rect x="219" y="152" width="17" height="17" transform="rotate(0,227.5,160.5)"/><rect x="219" y="254" width="17" height="17" transform="rotate(0,227.5,262.5)"/><rect x="236" y="152" width="17" height="17" transform="rotate(0,244.5,160.5)"/><rect x="236" y="254" width="17" height="17" transform="rotate(0,244.5,262.5)"/><rect x="253" y="152" width="17" height="17" transform="rotate(0,261.5,160.5)"/><rect x="253" y="169" width="17" height="17" transform="rotate(0,261.5,177.5)"/><rect x="253" y="186" width="17" height="17" transform="rotate(0,261.5,194.5)"/><rect x="253" y="203" width="17" height="17" transform="rotate(0,261.5,211.5)"/><rect x="253" y="220" width="17" height="17" transform="rotate(0,261.5,228.5)"/><rect x="253" y="237" width="17" height="17" transform="rotate(0,261.5,245.5)"/><rect x="253" y="254" width="17" height="17" transform="rotate(0,261.5,262.5)"/></clipPath><clipPath id="clip-path-corners-dot-color-0-0"><rect x="185" y="186" width="17" height="17" transform="rotate(0,193.5,194.5)"/><rect x="185" y="203" width="17" height="17" transform="rotate(0,193.5,211.5)"/><rect x="185" y="220" width="17" height="17" transform="rotate(0,193.5,228.5)"/><rect x="202" y="186" width="17" height="17" transform="rotate(0,210.5,194.5)"/><rect x="202" y="203" width="17" height="17" transform="rotate(0,210.5,211.5)"/><rect x="202" y="220" width="17" height="17" transform="rotate(0,210.5,228.5)"/><rect x="219" y="186" width="17" height="17" transform="rotate(0,227.5,194.5)"/><rect x="219" y="203" width="17" height="17" transform="rotate(0,227.5,211.5)"/><rect x="219" y="220" width="17" height="17" transform="rotate(0,227.5,228.5)"/></clipPath><clipPath id="clip-path-corners-square-color-1-0"><rect x="729" y="152" width="17" height="17" transform="rotate(0,737.5,160.5)"/><rect x="729" y="169" width="17" height="17" transform="rotate(0,737.5,177.5)"/><rect x="729" y="186" width="17" height="17" transform="rotate(0,737.5,194.5)"/><rect x="729" y="203" width="17" height="17" transform="rotate(0,737.5,211.5)"/><rect x="729" y="220" width="17" height="17" transform="rotate(0,737.5,228.5)"/><rect x="729" y="237" width="17" height="17" transform="rotate(0,737.5,245.5)"/><rect x="729" y="254" width="17" height="17" transform="rotate(0,737.5,262.5)"/><rect x="746" y="152" width="17" height="17" transform="rotate(0,754.5,160.5)"/><rect x="746" y="254" width="17" height="17" transform="rotate(0,754.5,262.5)"/><rect x="763" y="152" width="17" height="17" transform="rotate(0,771.5,160.5)"/><rect x="763" y="254" width="17" height="17" transform="rotate(0,771.5,262.5)"/><rect x="780" y="152" width="17" height="17" transform="rotate(0,788.5,160.5)"/><rect x="780" y="254" width="17" height="17" transform="rotate(0,788.5,262.5)"/><rect x="797" y="152" width="17" height="17" transform="rotate(0,805.5,160.5)"/><rect x="797" y="254" width="17" height="17" transform="rotate(0,805.5,262.5)"/><rect x="814" y="152" width="17" height="17" transform="rotate(0,822.5,160.5)"/><rect x="814" y="254" width="17" height="17" transform="rotate(0,822.5,262.5)"/><rect x="831" y="152" width="17" height="17" transform="rotate(0,839.5,160.5)"/><rect x="831" y="169" width="17" height="17" transform="rotate(0,839.5,177.5)"/><rect x="831" y="186" width="17" height="17" transform="rotate(0,839.5,194.5)"/><rect x="831" y="203" width="17" height="17" transform="rotate(0,839.5,211.5)"/><rect x="831" y="220" width="17" height="17" transform="rotate(0,839.5,228.5)"/><rect x="831" y="237" width="17" height="17" transform="rotate(0,839.5,245.5)"/><rect x="831" y="254" width="17" height="17" transform="rotate(0,839.5,262.5)"/></clipPath><clipPath id="clip-path-corners-dot-color-1-0"><rect x="763" y="186" width="17" height="17" transform="rotate(0,771.5,194.5)"/><rect x="763" y="203" width="17" height="17" transform="rotate(0,771.5,211.5)"/><rect x="763" y="220" width="17" height="17" transform="rotate(0,771.5,228.5)"/><rect x="780" y="186" width="17" height="17" transform="rotate(0,788.5,194.5)"/><rect x="780" y="203" width="17" height="17" transform="rotate(0,788.5,211.5)"/><rect x="780" y="220" width="17" height="17" transform="rotate(0,788.5,228.5)"/><rect x="797" y="186" width="17" height="17" transform="rotate(0,805.5,194.5)"/><rect x="797" y="203" width="17" height="17" transform="rotate(0,805.5,211.5)"/><rect x="797" y="220" width="17" height="17" transform="rotate(0,805.5,228.5)"/></clipPath><clipPath id="clip-path-corners-square-color-0-1"><rect x="151" y="730" width="17" height="17" transform="rotate(0,159.5,738.5)"/><rect x="151" y="747" width="17" height="17" transform="rotate(0,159.5,755.5)"/><rect x="151" y="764" width="17" height="17" transform="rotate(0,159.5,772.5)"/><rect x="151" y="781" width="17" height="17" transform="rotate(0,159.5,789.5)"/><rect x="151" y="798" width="17" height="17" transform="rotate(0,159.5,806.5)"/><rect x="151" y="815" width="17" height="17" transform="rotate(0,159.5,823.5)"/><rect x="151" y="832" width="17" height="17" transform="rotate(0,159.5,840.5)"/><rect x="168" y="730" width="17" height="17" transform="rotate(0,176.5,738.5)"/><rect x="168" y="832" width="17" height="17" transform="rotate(0,176.5,840.5)"/><rect x="185" y="730" width="17" height="17" transform="rotate(0,193.5,738.5)"/><rect x="185" y="832" width="17" height="17" transform="rotate(0,193.5,840.5)"/><rect x="202" y="730" width="17" height="17" transform="rotate(0,210.5,738.5)"/><rect x="202" y="832" width="17" height="17" transform="rotate(0,210.5,840.5)"/><rect x="219" y="730" width="17" height="17" transform="rotate(0,227.5,738.5)"/><rect x="219" y="832" width="17" height="17" transform="rotate(0,227.5,840.5)"/><rect x="236" y="730" width="17" height="17" transform="rotate(0,244.5,738.5)"/><rect x="236" y="832" width="17" height="17" transform="rotate(0,244.5,840.5)"/><rect x="253" y="730" width="17" height="17" transform="rotate(0,261.5,738.5)"/><rect x="253" y="747" width="17" height="17" transform="rotate(0,261.5,755.5)"/><rect x="253" y="764" width="17" height="17" transform="rotate(0,261.5,772.5)"/><rect x="253" y="781" width="17" height="17" transform="rotate(0,261.5,789.5)"/><rect x="253" y="798" width="17" height="17" transform="rotate(0,261.5,806.5)"/><rect x="253" y="815" width="17" height="17" transform="rotate(0,261.5,823.5)"/><rect x="253" y="832" width="17" height="17" transform="rotate(0,261.5,840.5)"/></clipPath><clipPath id="clip-path-corners-dot-color-0-1"><rect x="185" y="764" width="17" height="17" transform="rotate(0,193.5,772.5)"/><rect x="185" y="781" width="17" height="17" transform="rotate(0,193.5,789.5)"/><rect x="185" y="798" width="17" height="17" transform="rotate(0,193.5,806.5)"/><rect x="202" y="764" width="17" height="17" transform="rotate(0,210.5,772.5)"/><rect x="202" y="781" width="17" height="17" transform="rotate(0,210.5,789.5)"/><rect x="202" y="798" width="17" height="17" transform="rotate(0,210.5,806.5)"/><rect x="219" y="764" width="17" height="17" transform="rotate(0,227.5,772.5)"/><rect x="219" y="781" width="17" height="17" transform="rotate(0,227.5,789.5)"/><rect x="219" y="798" width="17" height="17" transform="rotate(0,227.5,806.5)"/></clipPath></defs><rect x="0" y="0" height="1300" width="1000" clip-path="url('#clip-path-frame-background-color')" fill="transparent"/><defs/><path fill="#d22828" d="M960,0H40A40,40,0,0,0,0,40V960a40,40,0,0,0,40,40H960a40,40,0,0,0,40-40V40A40,40,0,0,0,960,0Zm0,960H40V40H960Z"/><path fill="#d22828" d="M960,1040H40a40,40,0,0,0-40,40v180a40,40,0,0,0,40,40H960a40,40,0,0,0,40-40V1080A40,40,0,0,0,960,1040ZM216,1201.86a12,12,0,0,1-12,12H108a12,12,0,0,1-12-12v-61.72a12,12,0,0,1,12-12h96a12,12,0,0,1,12,12Z"/><polygon fill="#d22828" points="139.81 1150 139.81 1171 139.81 1192 158 1181.5 176.19 1171 158 1160.5 139.81 1150"/>
			<text x="60%" y="1180" fill="#ffffff" dominant-baseline="middle" text-anchor="middle" font-family="sans-serif" font-size="83" font-weight="600">Backstage Pass</text><rect x="112" y="112" height="777" width="776" clip-path="url('#clip-path-background-color')" fill="#ffffff"/><rect x="151" y="152" height="697" width="697" clip-path="url('#clip-path-dot-color')" fill="url('#dot-color')"/><rect x="151" y="152" height="119" width="119" clip-path="url('#clip-path-corners-square-color-0-0')" fill="#000000"/><rect x="185" y="186" height="51" width="51" clip-path="url('#clip-path-corners-dot-color-0-0')" fill="#000000"/><rect x="729" y="152" height="119" width="119" clip-path="url('#clip-path-corners-square-color-1-0')" fill="#000000"/><rect x="763" y="186" height="51" width="51" clip-path="url('#clip-path-corners-dot-color-1-0')" fill="#000000"/><rect x="151" y="730" height="119" width="119" clip-path="url('#clip-path-corners-square-color-0-1')" fill="#000000"/><rect x="185" y="764" height="51" width="51" clip-path="url('#clip-path-corners-dot-color-0-1')" fill="#000000"/></svg>